<mxfile host="Electron" agent="Mozilla/5.0 (Windows NT 10.0; Win64; x64) AppleWebKit/537.36 (KHTML, like Gecko) draw.io/24.7.5 Chrome/126.0.6478.183 Electron/31.3.0 Safari/537.36" version="24.7.5">
  <diagram name="第 1 页" id="4qxl6gEiuomT7_4uYynd">
    <mxGraphModel dx="955" dy="717" grid="1" gridSize="10" guides="1" tooltips="1" connect="1" arrows="1" fold="1" page="1" pageScale="1" pageWidth="827" pageHeight="1169" math="0" shadow="0">
      <root>
        <mxCell id="0" />
        <mxCell id="1" parent="0" />
        <mxCell id="0TVcVlIMPZ0vBSjVe1k3-5" style="edgeStyle=orthogonalEdgeStyle;rounded=0;orthogonalLoop=1;jettySize=auto;html=1;exitX=0.5;exitY=1;exitDx=0;exitDy=0;" edge="1" parent="1" source="0TVcVlIMPZ0vBSjVe1k3-1" target="0TVcVlIMPZ0vBSjVe1k3-4">
          <mxGeometry relative="1" as="geometry" />
        </mxCell>
        <mxCell id="0TVcVlIMPZ0vBSjVe1k3-1" value="&lt;font style=&quot;font-size: 15px;&quot;&gt;Init&lt;/font&gt;" style="rounded=0;whiteSpace=wrap;html=1;" vertex="1" parent="1">
          <mxGeometry x="140" y="170" width="120" height="60" as="geometry" />
        </mxCell>
        <mxCell id="0TVcVlIMPZ0vBSjVe1k3-6" style="edgeStyle=orthogonalEdgeStyle;rounded=0;orthogonalLoop=1;jettySize=auto;html=1;exitX=0.5;exitY=0.95;exitDx=0;exitDy=0;exitPerimeter=0;entryX=1;entryY=0.5;entryDx=0;entryDy=0;" edge="1" parent="1" source="0TVcVlIMPZ0vBSjVe1k3-3" target="0TVcVlIMPZ0vBSjVe1k3-4">
          <mxGeometry relative="1" as="geometry">
            <Array as="points">
              <mxPoint x="390" y="187" />
              <mxPoint x="390" y="330" />
            </Array>
          </mxGeometry>
        </mxCell>
        <mxCell id="0TVcVlIMPZ0vBSjVe1k3-3" value="" style="sketch=0;pointerEvents=1;shadow=0;dashed=0;html=1;strokeColor=none;labelPosition=center;verticalLabelPosition=bottom;verticalAlign=top;align=center;fillColor=#515151;shape=mxgraph.mscae.system_center.primary_site" vertex="1" parent="1">
          <mxGeometry x="360" y="130" width="60" height="60" as="geometry" />
        </mxCell>
        <mxCell id="0TVcVlIMPZ0vBSjVe1k3-4" value="load deadlock Pattern" style="rounded=1;whiteSpace=wrap;html=1;" vertex="1" parent="1">
          <mxGeometry x="145" y="310" width="110" height="40" as="geometry" />
        </mxCell>
        <mxCell id="0TVcVlIMPZ0vBSjVe1k3-7" value="&lt;font style=&quot;font-size: 15px;&quot;&gt;Database&lt;/font&gt;" style="text;html=1;align=center;verticalAlign=middle;resizable=0;points=[];autosize=1;strokeColor=none;fillColor=none;" vertex="1" parent="1">
          <mxGeometry x="430" y="150" width="90" height="30" as="geometry" />
        </mxCell>
        <mxCell id="0TVcVlIMPZ0vBSjVe1k3-8" value="" style="rounded=0;whiteSpace=wrap;html=1;" vertex="1" parent="1">
          <mxGeometry x="150" y="495" width="150" height="50" as="geometry" />
        </mxCell>
        <mxCell id="0TVcVlIMPZ0vBSjVe1k3-10" value="&lt;span style=&quot;color: rgb(0, 0, 0); font-family: Helvetica; font-style: normal; font-variant-ligatures: normal; font-variant-caps: normal; font-weight: 400; letter-spacing: normal; orphans: 2; text-align: center; text-indent: 0px; text-transform: none; widows: 2; word-spacing: 0px; -webkit-text-stroke-width: 0px; white-space: nowrap; background-color: rgb(251, 251, 251); text-decoration-thickness: initial; text-decoration-style: initial; text-decoration-color: initial; float: none; display: inline !important;&quot;&gt;&lt;font style=&quot;font-size: 15px;&quot;&gt;vector waiting[2]&lt;/font&gt;&lt;/span&gt;" style="text;whiteSpace=wrap;html=1;" vertex="1" parent="1">
          <mxGeometry x="180" y="545" width="110" height="40" as="geometry" />
        </mxCell>
        <mxCell id="0TVcVlIMPZ0vBSjVe1k3-11" value="TRUE" style="rounded=0;whiteSpace=wrap;html=1;fillColor=#d5e8d4;strokeColor=#82b366;" vertex="1" parent="1">
          <mxGeometry x="230" y="505" width="60" height="30" as="geometry" />
        </mxCell>
        <mxCell id="0TVcVlIMPZ0vBSjVe1k3-12" value="TRUE" style="rounded=0;whiteSpace=wrap;html=1;fillColor=#d5e8d4;strokeColor=#82b366;" vertex="1" parent="1">
          <mxGeometry x="160" y="505" width="60" height="30" as="geometry" />
        </mxCell>
      </root>
    </mxGraphModel>
  </diagram>
</mxfile>
